<svg width="9" height="9" viewBox="0 0 9 9" fill="none" xmlns="http://www.w3.org/2000/svg">
<path d="M8.18748 4.34368C8.18748 4.86073 8.08805 5.338 7.88919 5.81527C7.69033 6.29255 7.41191 6.69027 7.05396 7.04823C6.696 7.40618 6.27839 7.68459 5.821 7.88346C5.34373 8.08232 4.86646 8.18175 4.34942 8.18175C3.83237 8.18175 3.3551 8.08232 2.87782 7.88346C2.40055 7.68459 2.00282 7.40618 1.64487 7.04823C1.28691 6.69027 1.00851 6.27266 0.809648 5.81527C0.610784 5.338 0.511353 4.86073 0.511353 4.34368C0.511353 3.82664 0.610784 3.34936 0.809648 2.87209C1.00851 2.39482 1.28691 1.99709 1.64487 1.63914C2.00282 1.28118 2.42044 1.00277 2.87782 0.803911C3.3551 0.605047 3.83237 0.505615 4.34942 0.505615C4.86646 0.505615 5.34373 0.605047 5.821 0.803911C6.29827 1.00277 6.696 1.28118 7.05396 1.63914C7.41191 1.99709 7.69033 2.41471 7.88919 2.87209C8.08805 3.34936 8.18748 3.82664 8.18748 4.34368Z" fill="#00136F"/>
</svg>
